<svg xmlns="http://www.w3.org/2000/svg" xmlns:xlink="http://www.w3.org/1999/xlink" viewBox="0 0 81 81" fill="#fff" fill-rule="evenodd" stroke="#000" stroke-linecap="round" stroke-linejoin="round"><use xlink:href="#A" x=".5" y=".5"/><symbol id="A" overflow="visible"><path d="M77.895 8.609H46.947V0L0 8.189v63.622L46.947 80v-7.559h30.947c1.263 0 2.105-1.05 2.105-2.1V10.709c0-1.05-.842-2.1-2.105-2.1zm-48 44.934l-5.263-.42-4-19.108c-.211.42-3.789 18.688-3.789 18.688L12 52.284 7.368 28.556l4.421-.42 2.947 18.688 4-19.318 4.842-.42 3.789 19.948 3.579-20.367 5.053-.42-6.105 27.297zm47.579 16.378h0-30.526v-6.299h23.579v-3.78H46.947v-4.829h23.579v-3.569H46.947v-4.829h23.579v-3.57H46.947v-4.829h23.579v-3.57H46.947v-4.829h23.579v-3.57H46.947v-4.829h23.579v-3.57H46.947v-5.879h30.526v57.953z" fill="#2c3580" stroke="none"/></symbol></svg>